<?xml version="1.0" encoding="utf-8"?>
<!-- Generator: Adobe Illustrator 24.0.1, SVG Export Plug-In . SVG Version: 6.00 Build 0)  -->
<svg version="1.1" id="Layer_1" xmlns="http://www.w3.org/2000/svg" xmlns:xlink="http://www.w3.org/1999/xlink" x="0px" y="0px"
	 viewBox="0 0 300 100" enable-background="new 0 0 300 100" xml:space="preserve">
<linearGradient id="SVGID_1_" gradientUnits="userSpaceOnUse" x1="150" y1="99.6211" x2="150" y2="2.3789" gradientTransform="matrix(1 0 0 -1 0 101)">
	<stop  offset="0" style="stop-color:#A3CC39"/>
	<stop  offset="0.698" style="stop-color:#85BD40"/>
	<stop  offset="1" style="stop-color:#65AD45"/>
</linearGradient>
<path fill="white" d="M297.499,31.698h-23.491v39.196c0,1.771-0.683,3.274-1.774,4.508
	c-1.094,1.093-2.596,1.639-4.366,1.771h-13.658c-1.912-0.137-3.415-0.683-4.507-1.771c-1.096-1.229-1.775-2.731-1.775-4.508V31.698
	h-23.49v41.245c0.139,5.464,1.096,10.242,3.416,14.063c2.318,3.826,5.324,6.693,9.285,8.604c4.098,1.912,8.74,3.01,14.065,3.01
	h22.81v-0.271c4.918,0,9.149-1.096,12.7-3.144c3.413-2.188,6.146-5.188,7.923-9.019c1.909-3.821,2.866-8.332,2.866-13.248
	L297.499,31.698z M62.455,34.157c-4.098-1.775-8.604-2.595-13.521-2.459h-15.16l-5.872,0.684c-1.366,0.409-2.049,0.683-2.049,0.683
	V1.379H2.499v97.242h23.354V59.286c0.137-1.64,0.683-3.277,1.912-4.37c1.229-1.093,2.595-1.775,4.507-1.775H45.93
	c1.638,0,3.141,0.688,4.37,1.775c1.229,1.093,1.774,2.731,1.911,4.37v39.335h23.354V56.283c0-5.874-1.229-10.653-3.551-14.341
	C69.558,38.391,66.416,35.796,62.455,34.157z M141.939,70.895c-0.137,1.772-0.683,3.275-1.775,4.508
	c-1.23,1.094-2.732,1.64-4.507,1.771H122c-1.775-0.137-3.277-0.683-4.37-1.771c-1.229-1.229-1.775-2.73-1.912-4.508V31.698H92.364
	v41.245c0,5.464,1.093,10.242,3.278,14.063c2.185,3.826,5.326,6.693,9.287,8.604c4.097,1.912,8.604,3.01,14.066,3.01h22.945v-0.271
	c4.917,0,9.149-1.096,12.564-3.144c3.414-2.188,6.145-5.188,8.06-9.019c1.773-3.821,2.731-8.332,2.867-13.248V31.698h-23.491V70.895
	L141.939,70.895z M183.186,98.621h23.355V1.379h-23.355V98.621z"/>
</svg>
